<svg width="212" height="56" viewBox="0 0 212 56" fill="none" xmlns="http://www.w3.org/2000/svg">
<rect x="36" y="6" width="176" height="44" rx="8" fill="white" fill-opacity="0.2"/>
<rect x="36.5" y="6.5" width="175" height="43" rx="7.5" stroke="white" stroke-opacity="0.2"/>
<path d="M63.1 24.07C62.6133 24.07 62.1733 23.9867 61.78 23.82C61.3933 23.6533 61.0867 23.4133 60.86 23.1C60.6333 22.7867 60.5167 22.4167 60.51 21.99H62.01C62.03 22.2767 62.13 22.5033 62.31 22.67C62.4967 22.8367 62.75 22.92 63.07 22.92C63.3967 22.92 63.6533 22.8433 63.84 22.69C64.0267 22.53 64.12 22.3233 64.12 22.07C64.12 21.8633 64.0567 21.6933 63.93 21.56C63.8033 21.4267 63.6433 21.3233 63.45 21.25C63.2633 21.17 63.0033 21.0833 62.67 20.99C62.2167 20.8567 61.8467 20.7267 61.56 20.6C61.28 20.4667 61.0367 20.27 60.83 20.01C60.63 19.7433 60.53 19.39 60.53 18.95C60.53 18.5367 60.6333 18.1767 60.84 17.87C61.0467 17.5633 61.3367 17.33 61.71 17.17C62.0833 17.0033 62.51 16.92 62.99 16.92C63.71 16.92 64.2933 17.0967 64.74 17.45C65.1933 17.7967 65.4433 18.2833 65.49 18.91H63.95C63.9367 18.67 63.8333 18.4733 63.64 18.32C63.4533 18.16 63.2033 18.08 62.89 18.08C62.6167 18.08 62.3967 18.15 62.23 18.29C62.07 18.43 61.99 18.6333 61.99 18.9C61.99 19.0867 62.05 19.2433 62.17 19.37C62.2967 19.49 62.45 19.59 62.63 19.67C62.8167 19.7433 63.0767 19.83 63.41 19.93C63.8633 20.0633 64.2333 20.1967 64.52 20.33C64.8067 20.4633 65.0533 20.6633 65.26 20.93C65.4667 21.1967 65.57 21.5467 65.57 21.98C65.57 22.3533 65.4733 22.7 65.28 23.02C65.0867 23.34 64.8033 23.5967 64.43 23.79C64.0567 23.9767 63.6133 24.07 63.1 24.07ZM72.0138 18.46V24H70.6038V23.3C70.4238 23.54 70.1871 23.73 69.8938 23.87C69.6071 24.0033 69.2938 24.07 68.9538 24.07C68.5204 24.07 68.1371 23.98 67.8038 23.8C67.4704 23.6133 67.2071 23.3433 67.0138 22.99C66.8271 22.63 66.7338 22.2033 66.7338 21.71V18.46H68.1338V21.51C68.1338 21.95 68.2438 22.29 68.4638 22.53C68.6838 22.7633 68.9838 22.88 69.3638 22.88C69.7504 22.88 70.0538 22.7633 70.2738 22.53C70.4938 22.29 70.6038 21.95 70.6038 21.51V18.46H72.0138ZM73.0351 21.23C73.0351 20.6567 73.1517 20.1567 73.3851 19.73C73.6184 19.2967 73.9417 18.9633 74.3551 18.73C74.7684 18.49 75.2417 18.37 75.7751 18.37C76.4617 18.37 77.0284 18.5433 77.4751 18.89C77.9284 19.23 78.2317 19.71 78.3851 20.33H76.8751C76.7951 20.09 76.6584 19.9033 76.4651 19.77C76.2784 19.63 76.0451 19.56 75.7651 19.56C75.3651 19.56 75.0484 19.7067 74.8151 20C74.5817 20.2867 74.4651 20.6967 74.4651 21.23C74.4651 21.7567 74.5817 22.1667 74.8151 22.46C75.0484 22.7467 75.3651 22.89 75.7651 22.89C76.3317 22.89 76.7017 22.6367 76.8751 22.13H78.3851C78.2317 22.73 77.9284 23.2067 77.4751 23.56C77.0217 23.9133 76.4551 24.09 75.7751 24.09C75.2417 24.09 74.7684 23.9733 74.3551 23.74C73.9417 23.5 73.6184 23.1667 73.3851 22.74C73.1517 22.3067 73.0351 21.8033 73.0351 21.23ZM79.0507 21.23C79.0507 20.6567 79.1674 20.1567 79.4007 19.73C79.634 19.2967 79.9574 18.9633 80.3707 18.73C80.784 18.49 81.2574 18.37 81.7907 18.37C82.4774 18.37 83.044 18.5433 83.4907 18.89C83.944 19.23 84.2474 19.71 84.4007 20.33H82.8907C82.8107 20.09 82.674 19.9033 82.4807 19.77C82.294 19.63 82.0607 19.56 81.7807 19.56C81.3807 19.56 81.064 19.7067 80.8307 20C80.5974 20.2867 80.4807 20.6967 80.4807 21.23C80.4807 21.7567 80.5974 22.1667 80.8307 22.46C81.064 22.7467 81.3807 22.89 81.7807 22.89C82.3474 22.89 82.7174 22.6367 82.8907 22.13H84.4007C84.2474 22.73 83.944 23.2067 83.4907 23.56C83.0374 23.9133 82.4707 24.09 81.7907 24.09C81.2574 24.09 80.784 23.9733 80.3707 23.74C79.9574 23.5 79.634 23.1667 79.4007 22.74C79.1674 22.3067 79.0507 21.8033 79.0507 21.23ZM90.5763 21.11C90.5763 21.31 90.563 21.49 90.5363 21.65H86.4863C86.5197 22.05 86.6597 22.3633 86.9063 22.59C87.153 22.8167 87.4563 22.93 87.8163 22.93C88.3363 22.93 88.7063 22.7067 88.9263 22.26H90.4363C90.2763 22.7933 89.9697 23.2333 89.5163 23.58C89.063 23.92 88.5063 24.09 87.8463 24.09C87.313 24.09 86.833 23.9733 86.4063 23.74C85.9863 23.5 85.6563 23.1633 85.4163 22.73C85.183 22.2967 85.0663 21.7967 85.0663 21.23C85.0663 20.6567 85.183 20.1533 85.4163 19.72C85.6497 19.2867 85.9763 18.9533 86.3963 18.72C86.8163 18.4867 87.2997 18.37 87.8463 18.37C88.373 18.37 88.843 18.4833 89.2563 18.71C89.6763 18.9367 89.9997 19.26 90.2263 19.68C90.4597 20.0933 90.5763 20.57 90.5763 21.11ZM89.1263 20.71C89.1197 20.35 88.9897 20.0633 88.7363 19.85C88.483 19.63 88.173 19.52 87.8063 19.52C87.4597 19.52 87.1663 19.6267 86.9263 19.84C86.693 20.0467 86.5497 20.3367 86.4963 20.71H89.1263ZM93.7182 24.09C93.2649 24.09 92.8582 24.01 92.4982 23.85C92.1382 23.6833 91.8515 23.46 91.6382 23.18C91.4315 22.9 91.3182 22.59 91.2982 22.25H92.7082C92.7349 22.4633 92.8382 22.64 93.0182 22.78C93.2049 22.92 93.4349 22.99 93.7082 22.99C93.9749 22.99 94.1815 22.9367 94.3282 22.83C94.4815 22.7233 94.5582 22.5867 94.5582 22.42C94.5582 22.24 94.4649 22.1067 94.2782 22.02C94.0982 21.9267 93.8082 21.8267 93.4082 21.72C92.9949 21.62 92.6549 21.5167 92.3882 21.41C92.1282 21.3033 91.9015 21.14 91.7082 20.92C91.5215 20.7 91.4282 20.4033 91.4282 20.03C91.4282 19.7233 91.5149 19.4433 91.6882 19.19C91.8682 18.9367 92.1215 18.7367 92.4482 18.59C92.7815 18.4433 93.1715 18.37 93.6182 18.37C94.2782 18.37 94.8049 18.5367 95.1982 18.87C95.5915 19.1967 95.8082 19.64 95.8482 20.2H94.5082C94.4882 19.98 94.3949 19.8067 94.2282 19.68C94.0682 19.5467 93.8515 19.48 93.5782 19.48C93.3249 19.48 93.1282 19.5267 92.9882 19.62C92.8549 19.7133 92.7882 19.8433 92.7882 20.01C92.7882 20.1967 92.8815 20.34 93.0682 20.44C93.2549 20.5333 93.5449 20.63 93.9382 20.73C94.3382 20.83 94.6682 20.9333 94.9282 21.04C95.1882 21.1467 95.4115 21.3133 95.5982 21.54C95.7915 21.76 95.8915 22.0533 95.8982 22.42C95.8982 22.74 95.8082 23.0267 95.6282 23.28C95.4549 23.5333 95.2015 23.7333 94.8682 23.88C94.5415 24.02 94.1582 24.09 93.7182 24.09ZM99.1674 24.09C98.7141 24.09 98.3074 24.01 97.9474 23.85C97.5874 23.6833 97.3008 23.46 97.0874 23.18C96.8808 22.9 96.7674 22.59 96.7474 22.25H98.1574C98.1841 22.4633 98.2874 22.64 98.4674 22.78C98.6541 22.92 98.8841 22.99 99.1574 22.99C99.4241 22.99 99.6308 22.9367 99.7774 22.83C99.9308 22.7233 100.007 22.5867 100.007 22.42C100.007 22.24 99.9141 22.1067 99.7274 22.02C99.5474 21.9267 99.2574 21.8267 98.8574 21.72C98.4441 21.62 98.1041 21.5167 97.8374 21.41C97.5774 21.3033 97.3508 21.14 97.1574 20.92C96.9708 20.7 96.8774 20.4033 96.8774 20.03C96.8774 19.7233 96.9641 19.4433 97.1374 19.19C97.3174 18.9367 97.5708 18.7367 97.8974 18.59C98.2308 18.4433 98.6208 18.37 99.0674 18.37C99.7274 18.37 100.254 18.5367 100.647 18.87C101.041 19.1967 101.257 19.64 101.297 20.2H99.9574C99.9374 19.98 99.8441 19.8067 99.6774 19.68C99.5174 19.5467 99.3008 19.48 99.0274 19.48C98.7741 19.48 98.5774 19.5267 98.4374 19.62C98.3041 19.7133 98.2374 19.8433 98.2374 20.01C98.2374 20.1967 98.3308 20.34 98.5174 20.44C98.7041 20.5333 98.9941 20.63 99.3874 20.73C99.7874 20.83 100.117 20.9333 100.377 21.04C100.637 21.1467 100.861 21.3133 101.047 21.54C101.241 21.76 101.341 22.0533 101.347 22.42C101.347 22.74 101.257 23.0267 101.077 23.28C100.904 23.5333 100.651 23.7333 100.317 23.88C99.9908 24.02 99.6074 24.09 99.1674 24.09ZM105.037 19.61H104.067V24H102.647V19.61H102.017V18.46H102.647V18.18C102.647 17.5 102.84 17 103.227 16.68C103.613 16.36 104.197 16.21 104.977 16.23V17.41C104.637 17.4033 104.4 17.46 104.267 17.58C104.133 17.7 104.067 17.9167 104.067 18.23V18.46H105.037V19.61ZM111.174 18.46V24H109.764V23.3C109.584 23.54 109.347 23.73 109.054 23.87C108.767 24.0033 108.454 24.07 108.114 24.07C107.681 24.07 107.297 23.98 106.964 23.8C106.631 23.6133 106.367 23.3433 106.174 22.99C105.987 22.63 105.894 22.2033 105.894 21.71V18.46H107.294V21.51C107.294 21.95 107.404 22.29 107.624 22.53C107.844 22.7633 108.144 22.88 108.524 22.88C108.911 22.88 109.214 22.7633 109.434 22.53C109.654 22.29 109.764 21.95 109.764 21.51V18.46H111.174ZM113.955 16.6V24H112.555V16.6H113.955ZM117.361 21.23C117.361 20.6567 117.478 20.1567 117.711 19.73C117.945 19.2967 118.268 18.9633 118.681 18.73C119.095 18.49 119.568 18.37 120.101 18.37C120.788 18.37 121.355 18.5433 121.801 18.89C122.255 19.23 122.558 19.71 122.711 20.33H121.201C121.121 20.09 120.985 19.9033 120.791 19.77C120.605 19.63 120.371 19.56 120.091 19.56C119.691 19.56 119.375 19.7067 119.141 20C118.908 20.2867 118.791 20.6967 118.791 21.23C118.791 21.7567 118.908 22.1667 119.141 22.46C119.375 22.7467 119.691 22.89 120.091 22.89C120.658 22.89 121.028 22.6367 121.201 22.13H122.711C122.558 22.73 122.255 23.2067 121.801 23.56C121.348 23.9133 120.781 24.09 120.101 24.09C119.568 24.09 119.095 23.9733 118.681 23.74C118.268 23.5 117.945 23.1667 117.711 22.74C117.478 22.3067 117.361 21.8033 117.361 21.23ZM123.377 21.21C123.377 20.65 123.487 20.1533 123.707 19.72C123.934 19.2867 124.237 18.9533 124.617 18.72C125.004 18.4867 125.434 18.37 125.907 18.37C126.32 18.37 126.68 18.4533 126.987 18.62C127.3 18.7867 127.55 18.9967 127.737 19.25V18.46H129.147V24H127.737V23.19C127.557 23.45 127.307 23.6667 126.987 23.84C126.674 24.0067 126.31 24.09 125.897 24.09C125.43 24.09 125.004 23.97 124.617 23.73C124.237 23.49 123.934 23.1533 123.707 22.72C123.487 22.28 123.377 21.7767 123.377 21.21ZM127.737 21.23C127.737 20.89 127.67 20.6 127.537 20.36C127.404 20.1133 127.224 19.9267 126.997 19.8C126.77 19.6667 126.527 19.6 126.267 19.6C126.007 19.6 125.767 19.6633 125.547 19.79C125.327 19.9167 125.147 20.1033 125.007 20.35C124.874 20.59 124.807 20.8767 124.807 21.21C124.807 21.5433 124.874 21.8367 125.007 22.09C125.147 22.3367 125.327 22.5267 125.547 22.66C125.774 22.7933 126.014 22.86 126.267 22.86C126.527 22.86 126.77 22.7967 126.997 22.67C127.224 22.5367 127.404 22.35 127.537 22.11C127.67 21.8633 127.737 21.57 127.737 21.23ZM132.634 24.09C132.181 24.09 131.774 24.01 131.414 23.85C131.054 23.6833 130.768 23.46 130.554 23.18C130.348 22.9 130.234 22.59 130.214 22.25H131.624C131.651 22.4633 131.754 22.64 131.934 22.78C132.121 22.92 132.351 22.99 132.624 22.99C132.891 22.99 133.098 22.9367 133.244 22.83C133.398 22.7233 133.474 22.5867 133.474 22.42C133.474 22.24 133.381 22.1067 133.194 22.02C133.014 21.9267 132.724 21.8267 132.324 21.72C131.911 21.62 131.571 21.5167 131.304 21.41C131.044 21.3033 130.818 21.14 130.624 20.92C130.438 20.7 130.344 20.4033 130.344 20.03C130.344 19.7233 130.431 19.4433 130.604 19.19C130.784 18.9367 131.038 18.7367 131.364 18.59C131.698 18.4433 132.088 18.37 132.534 18.37C133.194 18.37 133.721 18.5367 134.114 18.87C134.508 19.1967 134.724 19.64 134.764 20.2H133.424C133.404 19.98 133.311 19.8067 133.144 19.68C132.984 19.5467 132.768 19.48 132.494 19.48C132.241 19.48 132.044 19.5267 131.904 19.62C131.771 19.7133 131.704 19.8433 131.704 20.01C131.704 20.1967 131.798 20.34 131.984 20.44C132.171 20.5333 132.461 20.63 132.854 20.73C133.254 20.83 133.584 20.9333 133.844 21.04C134.104 21.1467 134.328 21.3133 134.514 21.54C134.708 21.76 134.808 22.0533 134.814 22.42C134.814 22.74 134.724 23.0267 134.544 23.28C134.371 23.5333 134.118 23.7333 133.784 23.88C133.458 24.02 133.074 24.09 132.634 24.09ZM141.113 21.11C141.113 21.31 141.1 21.49 141.073 21.65H137.023C137.057 22.05 137.197 22.3633 137.443 22.59C137.69 22.8167 137.993 22.93 138.353 22.93C138.873 22.93 139.243 22.7067 139.463 22.26H140.973C140.813 22.7933 140.507 23.2333 140.053 23.58C139.6 23.92 139.043 24.09 138.383 24.09C137.85 24.09 137.37 23.9733 136.943 23.74C136.523 23.5 136.193 23.1633 135.953 22.73C135.72 22.2967 135.603 21.7967 135.603 21.23C135.603 20.6567 135.72 20.1533 135.953 19.72C136.187 19.2867 136.513 18.9533 136.933 18.72C137.353 18.4867 137.837 18.37 138.383 18.37C138.91 18.37 139.38 18.4833 139.793 18.71C140.213 18.9367 140.537 19.26 140.763 19.68C140.997 20.0933 141.113 20.57 141.113 21.11ZM139.663 20.71C139.657 20.35 139.527 20.0633 139.273 19.85C139.02 19.63 138.71 19.52 138.343 19.52C137.997 19.52 137.703 19.6267 137.463 19.84C137.23 20.0467 137.087 20.3367 137.033 20.71H139.663ZM145.228 17.8C144.981 17.8 144.775 17.7233 144.608 17.57C144.448 17.41 144.368 17.2133 144.368 16.98C144.368 16.7467 144.448 16.5533 144.608 16.4C144.775 16.24 144.981 16.16 145.228 16.16C145.475 16.16 145.678 16.24 145.838 16.4C146.005 16.5533 146.088 16.7467 146.088 16.98C146.088 17.2133 146.005 17.41 145.838 17.57C145.678 17.7233 145.475 17.8 145.228 17.8ZM145.918 18.46V24H144.518V18.46H145.918ZM150.371 18.38C151.031 18.38 151.565 18.59 151.971 19.01C152.378 19.4233 152.581 20.0033 152.581 20.75V24H151.181V20.94C151.181 20.5 151.071 20.1633 150.851 19.93C150.631 19.69 150.331 19.57 149.951 19.57C149.565 19.57 149.258 19.69 149.031 19.93C148.811 20.1633 148.701 20.5 148.701 20.94V24H147.301V18.46H148.701V19.15C148.888 18.91 149.125 18.7233 149.411 18.59C149.705 18.45 150.025 18.38 150.371 18.38ZM155.543 19.61V22.29C155.543 22.4767 155.586 22.6133 155.673 22.7C155.766 22.78 155.919 22.82 156.133 22.82H156.783V24H155.903C154.723 24 154.133 23.4267 154.133 22.28V19.61H153.473V18.46H154.133V17.09H155.543V18.46H156.783V19.61H155.543ZM157.43 21.21C157.43 20.65 157.54 20.1533 157.76 19.72C157.986 19.2867 158.29 18.9533 158.67 18.72C159.056 18.4867 159.486 18.37 159.96 18.37C160.373 18.37 160.733 18.4533 161.04 18.62C161.353 18.7867 161.603 18.9967 161.79 19.25V18.46H163.2V24H161.79V23.19C161.61 23.45 161.36 23.6667 161.04 23.84C160.726 24.0067 160.363 24.09 159.95 24.09C159.483 24.09 159.056 23.97 158.67 23.73C158.29 23.49 157.986 23.1533 157.76 22.72C157.54 22.28 157.43 21.7767 157.43 21.21ZM161.79 21.23C161.79 20.89 161.723 20.6 161.59 20.36C161.456 20.1133 161.276 19.9267 161.05 19.8C160.823 19.6667 160.58 19.6 160.32 19.6C160.06 19.6 159.82 19.6633 159.6 19.79C159.38 19.9167 159.2 20.1033 159.06 20.35C158.926 20.59 158.86 20.8767 158.86 21.21C158.86 21.5433 158.926 21.8367 159.06 22.09C159.2 22.3367 159.38 22.5267 159.6 22.66C159.826 22.7933 160.066 22.86 160.32 22.86C160.58 22.86 160.823 22.7967 161.05 22.67C161.276 22.5367 161.456 22.35 161.59 22.11C161.723 21.8633 161.79 21.57 161.79 21.23ZM167.847 24L165.967 21.64V24H164.567V16.6H165.967V20.81L167.827 18.46H169.647L167.207 21.24L169.667 24H167.847ZM175.557 21.11C175.557 21.31 175.543 21.49 175.517 21.65H171.467C171.5 22.05 171.64 22.3633 171.887 22.59C172.133 22.8167 172.437 22.93 172.797 22.93C173.317 22.93 173.687 22.7067 173.907 22.26H175.417C175.257 22.7933 174.95 23.2333 174.497 23.58C174.043 23.92 173.487 24.09 172.827 24.09C172.293 24.09 171.813 23.9733 171.387 23.74C170.967 23.5 170.637 23.1633 170.397 22.73C170.163 22.2967 170.047 21.7967 170.047 21.23C170.047 20.6567 170.163 20.1533 170.397 19.72C170.63 19.2867 170.957 18.9533 171.377 18.72C171.797 18.4867 172.28 18.37 172.827 18.37C173.353 18.37 173.823 18.4833 174.237 18.71C174.657 18.9367 174.98 19.26 175.207 19.68C175.44 20.0933 175.557 20.57 175.557 21.11ZM174.107 20.71C174.1 20.35 173.97 20.0633 173.717 19.85C173.463 19.63 173.153 19.52 172.787 19.52C172.44 19.52 172.147 19.6267 171.907 19.84C171.673 20.0467 171.53 20.3367 171.477 20.71H174.107ZM178.699 24.09C178.245 24.09 177.839 24.01 177.479 23.85C177.119 23.6833 176.832 23.46 176.619 23.18C176.412 22.9 176.299 22.59 176.279 22.25H177.689C177.715 22.4633 177.819 22.64 177.999 22.78C178.185 22.92 178.415 22.99 178.689 22.99C178.955 22.99 179.162 22.9367 179.309 22.83C179.462 22.7233 179.539 22.5867 179.539 22.42C179.539 22.24 179.445 22.1067 179.259 22.02C179.079 21.9267 178.789 21.8267 178.389 21.72C177.975 21.62 177.635 21.5167 177.369 21.41C177.109 21.3033 176.882 21.14 176.689 20.92C176.502 20.7 176.409 20.4033 176.409 20.03C176.409 19.7233 176.495 19.4433 176.669 19.19C176.849 18.9367 177.102 18.7367 177.429 18.59C177.762 18.4433 178.152 18.37 178.599 18.37C179.259 18.37 179.785 18.5367 180.179 18.87C180.572 19.1967 180.789 19.64 180.829 20.2H179.489C179.469 19.98 179.375 19.8067 179.209 19.68C179.049 19.5467 178.832 19.48 178.559 19.48C178.305 19.48 178.109 19.5267 177.969 19.62C177.835 19.7133 177.769 19.8433 177.769 20.01C177.769 20.1967 177.862 20.34 178.049 20.44C178.235 20.5333 178.525 20.63 178.919 20.73C179.319 20.83 179.649 20.9333 179.909 21.04C180.169 21.1467 180.392 21.3133 180.579 21.54C180.772 21.76 180.872 22.0533 180.879 22.42C180.879 22.74 180.789 23.0267 180.609 23.28C180.435 23.5333 180.182 23.7333 179.849 23.88C179.522 24.02 179.139 24.09 178.699 24.09ZM185.811 19.27C185.991 19.0033 186.237 18.7867 186.551 18.62C186.871 18.4533 187.234 18.37 187.641 18.37C188.114 18.37 188.541 18.4867 188.921 18.72C189.307 18.9533 189.611 19.2867 189.831 19.72C190.057 20.1467 190.171 20.6433 190.171 21.21C190.171 21.7767 190.057 22.28 189.831 22.72C189.611 23.1533 189.307 23.49 188.921 23.73C188.541 23.97 188.114 24.09 187.641 24.09C187.227 24.09 186.864 24.01 186.551 23.85C186.244 23.6833 185.997 23.47 185.811 23.21V24H184.411V16.6H185.811V19.27ZM188.741 21.21C188.741 20.8767 188.671 20.59 188.531 20.35C188.397 20.1033 188.217 19.9167 187.991 19.79C187.771 19.6633 187.531 19.6 187.271 19.6C187.017 19.6 186.777 19.6667 186.551 19.8C186.331 19.9267 186.151 20.1133 186.011 20.36C185.877 20.6067 185.811 20.8967 185.811 21.23C185.811 21.5633 185.877 21.8533 186.011 22.1C186.151 22.3467 186.331 22.5367 186.551 22.67C186.777 22.7967 187.017 22.86 187.271 22.86C187.531 22.86 187.771 22.7933 187.991 22.66C188.217 22.5267 188.397 22.3367 188.531 22.09C188.671 21.8433 188.741 21.55 188.741 21.21ZM196.488 18.46L193.058 26.62H191.568L192.768 23.86L190.548 18.46H192.118L193.548 22.33L194.998 18.46H196.488ZM63.15 39.09C62.6167 39.09 62.1367 38.9733 61.71 38.74C61.2833 38.5 60.9467 38.1633 60.7 37.73C60.46 37.2967 60.34 36.7967 60.34 36.23C60.34 35.6633 60.4633 35.1633 60.71 34.73C60.9633 34.2967 61.3067 33.9633 61.74 33.73C62.1733 33.49 62.6567 33.37 63.19 33.37C63.7233 33.37 64.2067 33.49 64.64 33.73C65.0733 33.9633 65.4133 34.2967 65.66 34.73C65.9133 35.1633 66.04 35.6633 66.04 36.23C66.04 36.7967 65.91 37.2967 65.65 37.73C65.3967 38.1633 65.05 38.5 64.61 38.74C64.1767 38.9733 63.69 39.09 63.15 39.09ZM63.15 37.87C63.4033 37.87 63.64 37.81 63.86 37.69C64.0867 37.5633 64.2667 37.3767 64.4 37.13C64.5333 36.8833 64.6 36.5833 64.6 36.23C64.6 35.7033 64.46 35.3 64.18 35.02C63.9067 34.7333 63.57 34.59 63.17 34.59C62.77 34.59 62.4333 34.7333 62.16 35.02C61.8933 35.3 61.76 35.7033 61.76 36.23C61.76 36.7567 61.89 37.1633 62.15 37.45C62.4167 37.73 62.75 37.87 63.15 37.87ZM72.297 33.46V39H70.887V38.3C70.707 38.54 70.4703 38.73 70.177 38.87C69.8903 39.0033 69.577 39.07 69.237 39.07C68.8036 39.07 68.4203 38.98 68.087 38.8C67.7536 38.6133 67.4903 38.3433 67.297 37.99C67.1103 37.63 67.017 37.2033 67.017 36.71V33.46H68.417V36.51C68.417 36.95 68.527 37.29 68.747 37.53C68.967 37.7633 69.267 37.88 69.647 37.88C70.0336 37.88 70.337 37.7633 70.557 37.53C70.777 37.29 70.887 36.95 70.887 36.51V33.46H72.297ZM75.0783 34.32C75.2583 34.0267 75.4916 33.7967 75.7783 33.63C76.0716 33.4633 76.4049 33.38 76.7783 33.38V34.85H76.4083C75.9683 34.85 75.6349 34.9533 75.4083 35.16C75.1883 35.3667 75.0783 35.7267 75.0783 36.24V39H73.6783V33.46H75.0783V34.32ZM84.3841 37.67H81.6041L81.1441 39H79.6741L82.1841 32.01H83.8141L86.3241 39H84.8441L84.3841 37.67ZM84.0041 36.55L82.9941 33.63L81.9841 36.55H84.0041ZM88.6623 32.02V39H87.2623V32.02H88.6623ZM92.0683 36.21C92.0683 35.65 92.1783 35.1533 92.3983 34.72C92.6249 34.2867 92.9283 33.9533 93.3083 33.72C93.6949 33.4867 94.1249 33.37 94.5983 33.37C95.0116 33.37 95.3716 33.4533 95.6783 33.62C95.9916 33.7867 96.2416 33.9967 96.4283 34.25V33.46H97.8383V39H96.4283V38.19C96.2483 38.45 95.9983 38.6667 95.6783 38.84C95.3649 39.0067 95.0016 39.09 94.5883 39.09C94.1216 39.09 93.6949 38.97 93.3083 38.73C92.9283 38.49 92.6249 38.1533 92.3983 37.72C92.1783 37.28 92.0683 36.7767 92.0683 36.21ZM96.4283 36.23C96.4283 35.89 96.3616 35.6 96.2283 35.36C96.0949 35.1133 95.9149 34.9267 95.6883 34.8C95.4616 34.6667 95.2183 34.6 94.9583 34.6C94.6983 34.6 94.4583 34.6633 94.2383 34.79C94.0183 34.9167 93.8383 35.1033 93.6983 35.35C93.5649 35.59 93.4983 35.8767 93.4983 36.21C93.4983 36.5433 93.5649 36.8367 93.6983 37.09C93.8383 37.3367 94.0183 37.5267 94.2383 37.66C94.4649 37.7933 94.7049 37.86 94.9583 37.86C95.2183 37.86 95.4616 37.7967 95.6883 37.67C95.9149 37.5367 96.0949 37.35 96.2283 37.11C96.3616 36.8633 96.4283 36.57 96.4283 36.23ZM102.276 33.38C102.936 33.38 103.469 33.59 103.876 34.01C104.282 34.4233 104.486 35.0033 104.486 35.75V39H103.086V35.94C103.086 35.5 102.976 35.1633 102.756 34.93C102.536 34.69 102.236 34.57 101.856 34.57C101.469 34.57 101.162 34.69 100.936 34.93C100.716 35.1633 100.606 35.5 100.606 35.94V39H99.2056V33.46H100.606V34.15C100.792 33.91 101.029 33.7233 101.316 33.59C101.609 33.45 101.929 33.38 102.276 33.38ZM105.457 36.21C105.457 35.65 105.567 35.1533 105.787 34.72C106.014 34.2867 106.32 33.9533 106.707 33.72C107.094 33.4867 107.524 33.37 107.997 33.37C108.357 33.37 108.7 33.45 109.027 33.61C109.354 33.7633 109.614 33.97 109.807 34.23V31.6H111.227V39H109.807V38.18C109.634 38.4533 109.39 38.6733 109.077 38.84C108.764 39.0067 108.4 39.09 107.987 39.09C107.52 39.09 107.094 38.97 106.707 38.73C106.32 38.49 106.014 38.1533 105.787 37.72C105.567 37.28 105.457 36.7767 105.457 36.21ZM109.817 36.23C109.817 35.89 109.75 35.6 109.617 35.36C109.484 35.1133 109.304 34.9267 109.077 34.8C108.85 34.6667 108.607 34.6 108.347 34.6C108.087 34.6 107.847 34.6633 107.627 34.79C107.407 34.9167 107.227 35.1033 107.087 35.35C106.954 35.59 106.887 35.8767 106.887 36.21C106.887 36.5433 106.954 36.8367 107.087 37.09C107.227 37.3367 107.407 37.5267 107.627 37.66C107.854 37.7933 108.094 37.86 108.347 37.86C108.607 37.86 108.85 37.7967 109.077 37.67C109.304 37.5367 109.484 37.35 109.617 37.11C109.75 36.8633 109.817 36.57 109.817 36.23ZM114.637 35.5C114.637 34.8133 114.79 34.2 115.097 33.66C115.41 33.1133 115.834 32.69 116.367 32.39C116.907 32.0833 117.51 31.93 118.177 31.93C118.957 31.93 119.64 32.13 120.227 32.53C120.814 32.93 121.224 33.4833 121.457 34.19H119.847C119.687 33.8567 119.46 33.6067 119.167 33.44C118.88 33.2733 118.547 33.19 118.167 33.19C117.76 33.19 117.397 33.2867 117.077 33.48C116.764 33.6667 116.517 33.9333 116.337 34.28C116.164 34.6267 116.077 35.0333 116.077 35.5C116.077 35.96 116.164 36.3667 116.337 36.72C116.517 37.0667 116.764 37.3367 117.077 37.53C117.397 37.7167 117.76 37.81 118.167 37.81C118.547 37.81 118.88 37.7267 119.167 37.56C119.46 37.3867 119.687 37.1333 119.847 36.8H121.457C121.224 37.5133 120.814 38.07 120.227 38.47C119.647 38.8633 118.964 39.06 118.177 39.06C117.51 39.06 116.907 38.91 116.367 38.61C115.834 38.3033 115.41 37.88 115.097 37.34C114.79 36.8 114.637 36.1867 114.637 35.5ZM125.113 39.09C124.58 39.09 124.1 38.9733 123.673 38.74C123.246 38.5 122.91 38.1633 122.663 37.73C122.423 37.2967 122.303 36.7967 122.303 36.23C122.303 35.6633 122.426 35.1633 122.673 34.73C122.926 34.2967 123.27 33.9633 123.703 33.73C124.136 33.49 124.62 33.37 125.153 33.37C125.686 33.37 126.17 33.49 126.603 33.73C127.036 33.9633 127.376 34.2967 127.623 34.73C127.876 35.1633 128.003 35.6633 128.003 36.23C128.003 36.7967 127.873 37.2967 127.613 37.73C127.36 38.1633 127.013 38.5 126.573 38.74C126.14 38.9733 125.653 39.09 125.113 39.09ZM125.113 37.87C125.366 37.87 125.603 37.81 125.823 37.69C126.05 37.5633 126.23 37.3767 126.363 37.13C126.496 36.8833 126.563 36.5833 126.563 36.23C126.563 35.7033 126.423 35.3 126.143 35.02C125.87 34.7333 125.533 34.59 125.133 34.59C124.733 34.59 124.396 34.7333 124.123 35.02C123.856 35.3 123.723 35.7033 123.723 36.23C123.723 36.7567 123.853 37.1633 124.113 37.45C124.38 37.73 124.713 37.87 125.113 37.87ZM134.26 33.46V39H132.85V38.3C132.67 38.54 132.433 38.73 132.14 38.87C131.853 39.0033 131.54 39.07 131.2 39.07C130.767 39.07 130.383 38.98 130.05 38.8C129.717 38.6133 129.453 38.3433 129.26 37.99C129.073 37.63 128.98 37.2033 128.98 36.71V33.46H130.38V36.51C130.38 36.95 130.49 37.29 130.71 37.53C130.93 37.7633 131.23 37.88 131.61 37.88C131.997 37.88 132.3 37.7633 132.52 37.53C132.74 37.29 132.85 36.95 132.85 36.51V33.46H134.26ZM138.711 33.38C139.371 33.38 139.905 33.59 140.311 34.01C140.718 34.4233 140.921 35.0033 140.921 35.75V39H139.521V35.94C139.521 35.5 139.411 35.1633 139.191 34.93C138.971 34.69 138.671 34.57 138.291 34.57C137.905 34.57 137.598 34.69 137.371 34.93C137.151 35.1633 137.041 35.5 137.041 35.94V39H135.641V33.46H137.041V34.15C137.228 33.91 137.465 33.7233 137.751 33.59C138.045 33.45 138.365 33.38 138.711 33.38ZM143.883 34.61V37.29C143.883 37.4767 143.926 37.6133 144.013 37.7C144.106 37.78 144.259 37.82 144.473 37.82H145.123V39H144.243C143.063 39 142.473 38.4267 142.473 37.28V34.61H141.813V33.46H142.473V32.09H143.883V33.46H145.123V34.61H143.883ZM146.839 32.8C146.593 32.8 146.386 32.7233 146.219 32.57C146.059 32.41 145.979 32.2133 145.979 31.98C145.979 31.7467 146.059 31.5533 146.219 31.4C146.386 31.24 146.593 31.16 146.839 31.16C147.086 31.16 147.289 31.24 147.449 31.4C147.616 31.5533 147.699 31.7467 147.699 31.98C147.699 32.2133 147.616 32.41 147.449 32.57C147.289 32.7233 147.086 32.8 146.839 32.8ZM147.529 33.46V39H146.129V33.46H147.529ZM151.983 33.38C152.643 33.38 153.176 33.59 153.583 34.01C153.989 34.4233 154.193 35.0033 154.193 35.75V39H152.793V35.94C152.793 35.5 152.683 35.1633 152.463 34.93C152.243 34.69 151.943 34.57 151.563 34.57C151.176 34.57 150.869 34.69 150.643 34.93C150.423 35.1633 150.313 35.5 150.313 35.94V39H148.913V33.46H150.313V34.15C150.499 33.91 150.736 33.7233 151.023 33.59C151.316 33.45 151.636 33.38 151.983 33.38ZM157.694 33.37C158.107 33.37 158.471 33.4533 158.784 33.62C159.097 33.78 159.344 33.99 159.524 34.25V33.46H160.934V39.04C160.934 39.5533 160.831 40.01 160.624 40.41C160.417 40.8167 160.107 41.1367 159.694 41.37C159.281 41.61 158.781 41.73 158.194 41.73C157.407 41.73 156.761 41.5467 156.254 41.18C155.754 40.8133 155.471 40.3133 155.404 39.68H156.794C156.867 39.9333 157.024 40.1333 157.264 40.28C157.511 40.4333 157.807 40.51 158.154 40.51C158.561 40.51 158.891 40.3867 159.144 40.14C159.397 39.9 159.524 39.5333 159.524 39.04V38.18C159.344 38.44 159.094 38.6567 158.774 38.83C158.461 39.0033 158.101 39.09 157.694 39.09C157.227 39.09 156.801 38.97 156.414 38.73C156.027 38.49 155.721 38.1533 155.494 37.72C155.274 37.28 155.164 36.7767 155.164 36.21C155.164 35.65 155.274 35.1533 155.494 34.72C155.721 34.2867 156.024 33.9533 156.404 33.72C156.791 33.4867 157.221 33.37 157.694 33.37ZM159.524 36.23C159.524 35.89 159.457 35.6 159.324 35.36C159.191 35.1133 159.011 34.9267 158.784 34.8C158.557 34.6667 158.314 34.6 158.054 34.6C157.794 34.6 157.554 34.6633 157.334 34.79C157.114 34.9167 156.934 35.1033 156.794 35.35C156.661 35.59 156.594 35.8767 156.594 36.21C156.594 36.5433 156.661 36.8367 156.794 37.09C156.934 37.3367 157.114 37.5267 157.334 37.66C157.561 37.7933 157.801 37.86 158.054 37.86C158.314 37.86 158.557 37.7967 158.784 37.67C159.011 37.5367 159.191 37.35 159.324 37.11C159.457 36.8633 159.524 36.57 159.524 36.23ZM164.111 31.9L163.951 36.73H162.771L162.601 31.9H164.111ZM163.391 39.07C163.138 39.07 162.928 38.9933 162.761 38.84C162.601 38.68 162.521 38.4833 162.521 38.25C162.521 38.0167 162.601 37.8233 162.761 37.67C162.928 37.51 163.138 37.43 163.391 37.43C163.638 37.43 163.841 37.51 164.001 37.67C164.161 37.8233 164.241 38.0167 164.241 38.25C164.241 38.4833 164.161 38.68 164.001 38.84C163.841 38.9933 163.638 39.07 163.391 39.07Z" fill="white"/>
<path d="M28 0L30.0882 4.79778L32.9996 0.449972L34.1976 5.54352L37.8385 1.78542L38.1078 7.01103L42.3612 3.96343L41.693 9.15314L46.4223 6.914L44.8382 11.901L49.8913 10.5423L47.4422 15.1663L52.6567 14.7317L49.4213 18.8441L54.6296 19.3475L50.7119 22.8162L55.7466 24.2415L51.2725 26.9548L55.9718 29.2562L51.0852 31.1271L55.298 34.2306L50.1558 35.1989L53.7468 39.0047L48.5144 39.0392L51.368 43.4251L46.2135 42.5248L48.2383 47.3498L43.3273 45.5436L44.458 50.6525L39.9485 47.9984L40.1487 53.2271L36.1856 49.8105L35.449 54.991L32.1597 50.9216L30.5099 55.8873L28 51.296L25.4901 55.8873L23.8403 50.9216L20.551 54.991L19.8144 49.8105L15.8513 53.2271L16.0515 47.9984L11.542 50.6525L12.6727 45.5436L7.76174 47.3498L9.78645 42.5248L4.63195 43.4251L7.48565 39.0392L2.25322 39.0047L5.84419 35.1989L0.702019 34.2306L4.91483 31.1271L0.0281944 29.2562L4.72746 26.9548L0.253407 24.2415L5.28808 22.8162L1.37042 19.3475L6.57868 18.8441L3.34332 14.7317L8.55778 15.1663L6.10872 10.5423L11.1618 11.901L9.57771 6.914L14.307 9.15314L13.6388 3.96343L17.8922 7.01103L18.1615 1.78542L21.8024 5.54352L23.0004 0.449972L25.9118 4.79778L28 0Z" fill="url(#paint0_linear_980_416)"/>
<path d="M50.75 28C50.75 40.8457 40.5594 51.25 28 51.25C15.4406 51.25 5.25 40.8457 5.25 28C5.25 15.1543 15.4406 4.75 28 4.75C40.5594 4.75 50.75 15.1543 50.75 28Z" stroke="black" stroke-width="0.5"/>
<circle cx="28" cy="28" r="22" fill="black"/>
<path d="M13.7209 25.2V23.523H16.8539V33H14.9819V25.2H13.7209ZM18.6519 28.138C18.6519 26.6387 18.9206 25.4643 19.4579 24.615C20.0039 23.7657 20.9052 23.341 22.1619 23.341C23.4186 23.341 24.3156 23.7657 24.8529 24.615C25.3989 25.4643 25.6719 26.6387 25.6719 28.138C25.6719 29.646 25.3989 30.829 24.8529 31.687C24.3156 32.545 23.4186 32.974 22.1619 32.974C20.9052 32.974 20.0039 32.545 19.4579 31.687C18.9206 30.829 18.6519 29.646 18.6519 28.138ZM23.8779 28.138C23.8779 27.4967 23.8346 26.9593 23.7479 26.526C23.6699 26.084 23.5052 25.7243 23.2539 25.447C23.0112 25.1697 22.6472 25.031 22.1619 25.031C21.6766 25.031 21.3082 25.1697 21.0569 25.447C20.8142 25.7243 20.6496 26.084 20.5629 26.526C20.4849 26.9593 20.4459 27.4967 20.4459 28.138C20.4459 28.7967 20.4849 29.3513 20.5629 29.802C20.6409 30.244 20.8056 30.6037 21.0569 30.881C21.3082 31.1497 21.6766 31.284 22.1619 31.284C22.6472 31.284 23.0156 31.1497 23.2669 30.881C23.5182 30.6037 23.6829 30.244 23.7609 29.802C23.8389 29.3513 23.8779 28.7967 23.8779 28.138ZM32.3862 33L29.0842 28.957V33H27.2642V23.926H29.0842V27.995L32.3862 23.926H34.5832L30.8392 28.424L34.6872 33H32.3862ZM42.6833 29.165H40.2263V31.687H38.5103V29.165H36.0533V27.579H38.5103V25.057H40.2263V27.579H42.6833V29.165Z" fill="white"/>
<defs>
<linearGradient id="paint0_linear_980_416" x1="-16.561" y1="-30.24" x2="80.2925" y2="-17.826" gradientUnits="userSpaceOnUse">
<stop stop-color="#EEC708"/>
<stop offset="0.49" stop-color="#F7CE0A"/>
<stop offset="1" stop-color="#FFD821"/>
</linearGradient>
</defs>
</svg>
